<?xml version="1.0" standalone="no"?>
<!DOCTYPE svg PUBLIC "-//W3C//DTD SVG 20010904//EN"
 "http://www.w3.org/TR/2001/REC-SVG-20010904/DTD/svg10.dtd">
<svg version="1.0" xmlns="http://www.w3.org/2000/svg"
 width="512.000000pt" height="512.000000pt" viewBox="0 0 512.000000 512.000000"
 preserveAspectRatio="xMidYMid meet">
<metadata>
Created by potrace 1.11, written by Peter Selinger 2001-2013
</metadata>
<g transform="translate(0.000000,512.000000) scale(0.100000,-0.100000)"
fill="#000000" stroke="none">
<path d="M2505 5098 c-48 -17 -66 -39 -228 -270 -83 -120 -336 -480 -560 -800
-225 -321 -415 -597 -423 -615 -32 -73 -2 -163 65 -201 34 -20 54 -22 170 -22
l132 0 -23 -33 c-13 -18 -189 -250 -391 -515 -202 -265 -375 -498 -383 -517
-20 -48 -17 -84 9 -129 45 -79 49 -80 312 -86 l234 -5 -67 -90 c-68 -91 -329
-448 -566 -773 -70 -97 -132 -188 -138 -202 -14 -37 0 -111 28 -147 50 -66 30
-64 749 -62 l650 3 5 -225 5 -226 30 -48 c36 -59 101 -110 156 -125 26 -7 136
-10 307 -8 258 3 269 4 312 27 57 30 92 65 122 121 22 43 23 57 26 265 2 121
5 221 7 223 2 2 297 5 657 6 603 3 656 4 691 21 20 9 47 31 59 47 25 36 34
105 20 146 -6 17 -114 169 -240 338 -127 170 -297 399 -379 509 l-149 200 225
5 c203 4 229 7 260 25 46 27 74 79 74 137 1 54 -14 79 -160 268 -185 240 -643
842 -643 845 0 2 63 5 139 7 122 3 143 6 167 24 52 39 69 71 69 132 -1 70 112
-99 -910 1359 -160 228 -262 364 -280 374 -39 23 -102 30 -140 17z"/>
</g>
</svg>
